# xmcd
#
# Track frame offsets:
#	150
#	12145
#	25609
#	36315
#	47173
#	59256
#	71174
#	82332
#	97291
#	111161
#	125411
#	134261
#	146938
#	160196
#	173754
#	191428
#	203940
#	216767
#	229208
#	241318
#	250844
#
# Disc length: 3477 seconds
#
# Revision: 0
# Processed by: cddbd v1.5.2PL0 Copyright (c) Steve Scherf et al.
# Submitted via: EasyCDDAExtractor 9.0.0.1
#
DISCID=380d9315
DTITLE=Various Artist - Great Male Vocalists
DYEAR=1998
DGENRE=Acapella
TTITLE0=Ed Ames - There's A Time For Everything
TTITLE1=Ed Ames - The Call The Wind Mariah
TTITLE2=John Gary - Don't Cry
TTITLE3=John Gary - How Many Times Must We Say Goodbye
TTITLE4=John Gary - I Thought I Had You
TTITLE5=Matt Monro - April Fool
TTITLE6=Matt Monro - Blue Orchids
TTITLE7=Matt Monro - Jeannie
TTITLE8=Matt Monro - Memphis In June
TTITLE9=Nat King Cole - A Little Bit Independent
TTITLE10=Nat King Cole - Almost Like Being In Love
TTITLE11=Nat King Cole - Always You
TTITLE12=Nat King Cole - Any Old Time
TTITLE13=Nat King Cole - Baby Won't You Say You Love Me
TTITLE14=Bobby Goldsboro - Honey
TTITLE15=Bobby Goldsboro - See The Funny Little Clown
TTITLE16=Ed Ames - Bon Soir Dame
TTITLE17=Ed Ames - Don't Blame Me
TTITLE18=Ed Ames - In The Arms Of Love
TTITLE19=Ed Ames - Melinda
TTITLE20=Ed Ames - Our Love Is A Living Thing
EXTD=
EXTT0=
EXTT1=
EXTT2=
EXTT3=
EXTT4=
EXTT5=
EXTT6=
EXTT7=
EXTT8=
EXTT9=
EXTT10=
EXTT11=
EXTT12=
EXTT13=
EXTT14=
EXTT15=
EXTT16=
EXTT17=
EXTT18=
EXTT19=
EXTT20=
PLAYORDER=
